<svg id="Layer_1" data-name="Layer 1" xmlns="http://www.w3.org/2000/svg" viewBox="0 0 64.14 64.14">
  <defs>
    <style>
      .cls-1 {
        fill: #2bb673;
        stroke: #2bb673;
      }

      .cls-1, .cls-2, .cls-3 {
        stroke-miterlimit: 10;
      }

      .cls-2, .cls-4 {
        fill: #fff;
      }

      .cls-2, .cls-3 {
        stroke: #fff;
      }

      .cls-3 {
        fill: none;
      }
    </style>
  </defs>
  <circle class="cls-1" cx="32.07" cy="32.07" r="31.57"/>
  <ellipse class="cls-2" cx="20.68" cy="19.86" rx="6.32" ry="8.79"/>
  <ellipse class="cls-2" cx="42.57" cy="19.86" rx="6.32" ry="8.79"/>
  <g>
    <path class="cls-3" d="M30.22,60.27S34.37,71.76,50.8,72.55" transform="translate(-17.93 -17.07)"/>
    <path class="cls-3" d="M71.25,60.27S67.13,71.76,50.8,72.55" transform="translate(-17.93 -17.07)"/>
  </g>
  <g>
    <line class="cls-3" x1="10.92" y1="39.66" x2="12.29" y2="43.2"/>
    <path class="cls-4" d="M26.66,51.11a30,30,0,0,1-1.34,9.69l3.81-3.33,5.06-.12A30.11,30.11,0,0,1,26.66,51.11Z" transform="translate(-17.93 -17.07)"/>
  </g>
  <g>
    <line class="cls-3" x1="54.21" y1="41.09" x2="52.83" y2="44.63"/>
    <path class="cls-4" d="M74.32,52.54a29.9,29.9,0,0,1-7.53,6.24l5.06.12,3.81,3.33A30,30,0,0,1,74.32,52.54Z" transform="translate(-17.93 -17.07)"/>
  </g>
</svg>
